# xmcd
#
# Track frame offsets:
#	150
#	11335
#	24907
#	37610
#	51242
#	63032
#	73620
#	85907
#	97947
#	108960
#	123545
#	135920
#	148942
#
# Disc length: 2142 seconds
#
# Revision: 2
# Processed by: cddbd v1.5.2PL0 Copyright (c) Steve Scherf et al.
# Submitted via: audiograbber 1.83.01
#
DISCID=9b085c0d
DTITLE=Little Milton - Little Milton:  The Sun Masters
DYEAR=1990
DGENRE=Blues
TTITLE0=Beggin' My Baby
TTITLE1=Somebody Told Me
TTITLE2=Lookin' For My Baby
TTITLE3=Alone And Blue
TTITLE4=If You Love Me Baby
TTITLE5=Homesick For My Baby
TTITLE6=Lookin' For My baby (Take 2)
TTITLE7=Running Wild Blues
TTITLE8=I Love My Baby
TTITLE9=If Crying Would Help Me
TTITLE10=Oo Wee, Wee Baby
TTITLE11=Home For My Baby (Alt.)
TTITLE12=Re-Beat
EXTD=
EXTT0=
EXTT1=
EXTT2=
EXTT3=
EXTT4=
EXTT5=
EXTT6=
EXTT7=
EXTT8=
EXTT9=
EXTT10=
EXTT11=
EXTT12=
PLAYORDER=
